<svg width="24" height="24" viewBox="0 0 24 24" fill="none" xmlns="http://www.w3.org/2000/svg">
<circle cx="12" cy="12" r="12" fill="#17B26A"/>
<path d="M11.6505 8.51716H8.74377C8.12792 8.51716 7.6269 9.01818 7.6269 9.634V14.3812C7.6269 14.865 7.23472 15.2572 6.75095 15.2572C6.26718 15.2572 5.875 14.865 5.875 14.3812V9.634C5.875 8.05217 7.16194 6.76526 8.74377 6.76526H11.6505L11.3806 6.49535C11.0385 6.15327 11.0385 5.59865 11.3806 5.25657C11.7227 4.91448 12.2773 4.91448 12.6194 5.25657L14.3846 7.02183C14.5489 7.1861 14.6412 7.40892 14.6412 7.64121C14.6412 7.8735 14.5489 8.09632 14.3846 8.26059L12.6194 10.0259C12.4483 10.1969 12.2242 10.2824 12 10.2824C11.7758 10.2824 11.5516 10.1969 11.3806 10.0259C11.0385 9.68377 11.0385 9.12915 11.3806 8.78706L11.6505 8.51716ZM17.249 8.75805C16.7653 8.75805 16.3731 9.15023 16.3731 9.634V14.3812C16.3731 14.9971 15.8721 15.4981 15.2562 15.4981H12.3495L12.6194 15.2281C12.9615 14.886 12.9615 14.3314 12.6194 13.9893C12.2773 13.6473 11.7227 13.6473 11.3806 13.9893L9.61537 15.7546C9.45108 15.9189 9.3588 16.1417 9.3588 16.374C9.3588 16.6063 9.45108 16.8291 9.61537 16.9934L11.3806 18.7586C11.5517 18.9297 11.7759 19.0152 12 19.0152C12.2242 19.0152 12.4484 18.9297 12.6194 18.7586C12.9615 18.4165 12.9615 17.8619 12.6194 17.5198L12.3495 17.2499H15.2562C16.8381 17.2499 18.125 15.963 18.125 14.3812V9.634C18.125 9.15023 17.7328 8.75805 17.249 8.75805Z" fill="white"/>
</svg>
