<svg width="24" height="24" viewBox="0 0 24 24" fill="none" xmlns="http://www.w3.org/2000/svg">
<path d="M6.764 1H4.674C2.265 1 1 2.265 1 4.663V6.753C1 9.151 2.265 10.416 4.663 10.416H6.753C9.151 10.416 10.416 9.151 10.416 6.753V4.663C10.427 2.265 9.162 1 6.764 1Z" fill="#1570EF"/>
<path d="M19.337 1H17.247C14.849 1 13.584 2.265 13.584 4.663V6.753C13.584 9.151 14.849 10.416 17.247 10.416H19.337C21.735 10.416 23 9.151 23 6.753V4.663C23 2.265 21.735 1 19.337 1Z" fill="#1570EF"/>
<path d="M19.337 13.5723H17.247C14.849 13.5723 13.584 14.8373 13.584 17.2353V19.3253C13.584 21.7233 14.849 22.9883 17.247 22.9883H19.337C21.735 22.9883 23 21.7233 23 19.3253V17.2353C23 14.8373 21.735 13.5723 19.337 13.5723Z" fill="#1570EF"/>
<path d="M6.764 13.5723H4.674C2.265 13.5723 1 14.8373 1 17.2353V19.3253C1 21.7343 2.265 22.9993 4.663 22.9993H6.753C9.151 22.9993 10.416 21.7343 10.416 19.3363V17.2463C10.427 14.8373 9.162 13.5723 6.764 13.5723Z" fill="#1570EF"/>
</svg>
