<svg width="24" height="24" viewBox="0 0 24 24" fill="none" xmlns="http://www.w3.org/2000/svg">
<path d="M20.8374 6.30011L14.507 1.86661C12.7816 0.656476 10.1329 0.722483 8.47337 2.00963L2.96726 6.31111C1.86823 7.16921 1 8.92941 1 10.3156V17.9064C1 20.7117 3.27498 23 6.0775 23H17.925C20.7275 23 23.0025 20.7227 23.0025 17.9174V10.4586C23.0025 8.97342 22.0463 7.14721 20.8374 6.30011ZM12.8255 18.5995C12.8255 19.0506 12.4518 19.4246 12.0012 19.4246C11.5506 19.4246 11.177 19.0506 11.177 18.5995V15.2991C11.177 14.8481 11.5506 14.474 12.0012 14.474C12.4518 14.474 12.8255 14.8481 12.8255 15.2991V18.5995Z" fill="#1570EF"/>
</svg>
