<svg width="25" height="24" viewBox="0 0 25 24" fill="none" xmlns="http://www.w3.org/2000/svg">
<path d="M12.1992 2C9.57922 2 7.44922 4.13 7.44922 6.75C7.44922 9.32 9.45922 11.4 12.0792 11.49C12.1592 11.48 12.2392 11.48 12.2992 11.49C12.3192 11.49 12.3292 11.49 12.3492 11.49C12.3592 11.49 12.3592 11.49 12.3692 11.49C14.9292 11.4 16.9392 9.32 16.9492 6.75C16.9492 4.13 14.8192 2 12.1992 2Z" fill="#155EEF"/>
<path d="M17.2792 14.1499C14.4892 12.2899 9.93918 12.2899 7.12918 14.1499C5.85918 14.9999 5.15918 16.1499 5.15918 17.3799C5.15918 18.6099 5.85918 19.7499 7.11918 20.5899C8.51918 21.5299 10.3592 21.9999 12.1992 21.9999C14.0392 21.9999 15.8792 21.5299 17.2792 20.5899C18.5392 19.7399 19.2392 18.5999 19.2392 17.3599C19.2292 16.1299 18.5392 14.9899 17.2792 14.1499Z" fill="#155EEF"/>
</svg>
