<svg width="33" height="33" viewBox="0 0 33 33" fill="none" xmlns="http://www.w3.org/2000/svg">
<g clip-path="url(#clip0_7046_5184)">
<path d="M22.4141 21.3555L23.4495 22.5765" stroke="white" stroke-width="2" stroke-linecap="round" stroke-linejoin="round"/>
<path d="M15.8223 24.0753L15.9494 25.6712" stroke="white" stroke-width="2" stroke-linecap="round" stroke-linejoin="round"/>
<path fill-rule="evenodd" clip-rule="evenodd" d="M22.2785 12.3975C21.2006 12.8465 20.6872 14.0815 21.1291 15.1623L21.4494 15.9384C21.6717 16.4771 21.4155 17.0933 20.8768 17.3157L13.8176 20.229C13.2797 20.451 12.6626 20.1952 12.4403 19.6564L12.1211 18.883C11.6722 17.8031 10.4351 17.2895 9.35253 17.7321C8.32904 18.1545 7.84115 19.3263 8.26354 20.3498L8.26503 20.3534C8.57678 21.1572 8.93444 21.9423 9.33645 22.7047C10.1561 24.2853 12.0021 25.037 13.6928 24.4792C14.5103 24.2819 17.5861 23.0125 18.8687 22.4831C20.1512 21.9539 23.5499 20.5207 23.9557 20.2415C25.5424 19.4416 26.3165 17.6116 25.7834 15.917C25.5338 15.0979 25.2405 14.2927 24.9036 13.5044C24.4902 12.4773 23.3222 11.9783 22.2937 12.3912L22.2785 12.3975Z" stroke="white" stroke-width="2" stroke-linecap="round" stroke-linejoin="round"/>
<path d="M9.47229 17.7684C8.98851 16.6829 8.57503 15.5663 8.23468 14.4279C7.66808 12.7081 8.43215 10.8308 10.0398 9.99782C12.0384 8.86988 14.1681 7.99092 16.3805 7.38103C18.1069 6.86114 19.9597 7.64481 20.7891 9.2466C21.3638 10.2872 21.8596 11.371 22.2723 12.4858" stroke="white" stroke-width="2"/>
<path d="M12.686 12.7042L12.6768 12.708" stroke="white" stroke-width="1.5" stroke-linecap="round" stroke-linejoin="round"/>
<path d="M13.8217 15.4806L13.8125 15.4844" stroke="white" stroke-width="1.5" stroke-linecap="round" stroke-linejoin="round"/>
<path d="M16.3842 11.1778L16.375 11.1816" stroke="white" stroke-width="1.5" stroke-linecap="round" stroke-linejoin="round"/>
<path d="M17.5288 13.9513L17.5195 13.9551" stroke="white" stroke-width="1.5" stroke-linecap="round" stroke-linejoin="round"/>
</g>
<defs>
<clipPath id="clip0_7046_5184">
<rect width="24" height="24" fill="white" transform="translate(0.669922 9.82617) rotate(-22.4261)"/>
</clipPath>
</defs>
</svg>
