<svg width="24" height="24" viewBox="0 0 24 24" fill="none" xmlns="http://www.w3.org/2000/svg">
<path opacity="0.4" fill-rule="evenodd" clip-rule="evenodd" d="M5.17558 12.0874C5.09366 12.0874 5.01241 12.0837 4.93171 12.0772C4.75545 12.0631 4.59766 12.1963 4.59766 12.3731V17.1389C4.6015 17.9424 4.91734 18.6951 5.48854 19.2586C6.05206 19.8163 6.79798 20.1226 7.58614 20.1226H8.62678C8.78584 20.1226 8.91478 19.9937 8.91478 19.8346V16.9642C8.91478 15.2592 10.2981 13.873 11.9992 13.873C13.6994 13.873 15.0837 15.2592 15.0837 16.9642V19.8346C15.0837 19.9937 15.2127 20.1226 15.3717 20.1226H16.3855C17.1525 20.1283 17.9407 19.8202 18.51 19.2576C19.0802 18.6941 19.397 17.9415 19.4008 17.137V12.3731C19.4008 12.1963 19.243 12.063 19.0668 12.0772C18.9859 12.0836 18.9046 12.0874 18.8229 12.0874H5.17558Z" fill="white"/>
<path d="M7.05201 10.632C7.19459 10.6308 7.31434 10.5254 7.33417 10.3842L8.25581 3.82319C8.28015 3.6499 8.1456 3.49512 7.97061 3.49512H6.03438C5.07246 3.49512 4.23054 4.08457 3.88398 5.00905L3.0315 7.49257C2.75982 8.21544 2.85966 9.02473 3.29838 9.6583C3.73422 10.2871 4.4187 10.6471 5.17614 10.6471C5.33766 10.6471 6.52716 10.6367 7.05201 10.632Z" fill="white"/>
<path d="M14.9169 10.6471C15.0919 10.6471 15.2265 10.4923 15.2025 10.319C15.1062 9.62134 15.0145 8.92207 14.9227 8.2226C14.7262 6.72416 14.5294 5.22428 14.2867 3.73585C14.2639 3.5969 14.1437 3.49512 14.003 3.49512H10.0028C9.85912 3.49512 9.73777 3.59859 9.71788 3.74085C9.58356 4.70162 9.08703 8.25261 8.79679 10.3206C8.77247 10.494 8.90725 10.6471 9.08223 10.6471H14.9169Z" fill="white"/>
<path d="M20.1104 4.99753L20.9725 7.50505C21.2394 8.21544 21.1386 9.02473 20.6999 9.6583C20.265 10.2861 19.5805 10.6471 18.8231 10.6471H16.9425C16.8018 10.6471 16.6815 10.5453 16.6589 10.4064C16.4162 8.91851 16.2196 7.41944 16.023 5.92153C15.9313 5.22142 15.8395 4.52157 15.743 3.82324C15.719 3.64989 15.8536 3.49512 16.0286 3.49512H17.9648C18.9143 3.49512 19.7764 4.09897 20.1104 4.99753Z" fill="white"/>
<path d="M10.3555 16.9637C10.3555 16.0527 11.0937 15.3125 11.9999 15.3125C12.9062 15.3125 13.6444 16.0527 13.6444 16.9637V19.8341C13.6444 19.9932 13.5155 20.1221 13.3564 20.1221H10.6435C10.4844 20.1221 10.3555 19.9932 10.3555 19.8341V16.9637Z" fill="white"/>
</svg>
