<svg width="24" height="24" viewBox="0 0 24 24" fill="none" xmlns="http://www.w3.org/2000/svg">
<path d="M8.80757 7.76007C8.80757 9.51449 7.32133 10.9368 5.63087 10.9368C3.94041 10.9368 2.20869 9.46601 2.45519 7.76007C2.58515 6.8576 3.01215 5.43737 3.38551 4.30077C3.73722 3.22605 4.73973 2.50098 5.87117 2.50098H18.0592C19.1855 2.50098 20.1839 3.21987 20.5407 4.28736C20.9213 5.42602 21.3576 6.85347 21.4886 7.76007C21.7351 9.46601 20.0034 10.9368 18.3129 10.9368C16.6224 10.9368 15.1362 9.51449 15.1362 7.76007" stroke="#364152" stroke-width="2" stroke-linecap="round" stroke-linejoin="round"/>
<path d="M8.79492 6.76562V7.75886C8.79492 9.51327 10.2172 10.9345 11.9716 10.9345C13.725 10.9345 15.1473 9.51327 15.1473 7.75886V6.76562" stroke="#364152" stroke-width="2" stroke-linecap="round" stroke-linejoin="round"/>
<path d="M3.86719 13.3867V16.9079C3.86719 19.5988 5.54321 21.5007 8.23619 21.5007H15.9417C18.6358 21.5007 20.3129 19.5988 20.3129 16.9079V13.3867" stroke="#364152" stroke-width="2" stroke-linecap="round" stroke-linejoin="round"/>
<path d="M9.19824 21.4999V18.1933C9.19824 16.6616 10.44 15.4199 11.9717 15.4199C13.5033 15.4199 14.7441 16.6616 14.7441 18.1933V21.4999" stroke="#364152" stroke-width="2" stroke-linecap="round" stroke-linejoin="round"/>
<path d="M16.706 13.9753H16.6382M16.6914 14.2501C16.5387 14.2501 16.415 14.1263 16.415 13.9736C16.415 13.8209 16.5387 13.6973 16.6914 13.6973C16.844 13.6973 16.9678 13.8209 16.9678 13.9736C16.9678 14.1263 16.844 14.2501 16.6914 14.2501Z" stroke="#364152" stroke-width="1.59004" stroke-linecap="round" stroke-linejoin="round"/>
</svg>
