<svg width="31" height="31" viewBox="0 0 31 31" fill="none" xmlns="http://www.w3.org/2000/svg">
<g clip-path="url(#clip0_7046_5164)">
<path d="M13.4079 10.4723C12.9538 12.1669 11.1501 13.1561 9.51721 12.7186C7.88435 12.2811 6.59232 10.4122 7.27194 8.82818C7.63105 7.99009 8.41109 6.72877 9.0659 5.72753C9.68378 4.78046 10.8398 4.33957 11.9327 4.6324L23.7054 7.7869C24.7933 8.0784 25.5717 9.03121 25.64 10.1547C25.7129 11.353 25.7649 12.8448 25.6568 13.7544C25.4534 15.466 23.4 16.4385 21.7671 16.001C20.1343 15.5634 19.0668 13.8049 19.5208 12.1103" stroke="white" stroke-width="2" stroke-linecap="round" stroke-linejoin="round"/>
<path d="M13.6533 9.50879L13.3963 10.4682C12.9422 12.1628 13.9482 13.9037 15.6428 14.3578C17.3364 14.8116 19.0781 13.8069 19.5322 12.1123L19.7893 11.1529" stroke="white" stroke-width="2" stroke-linecap="round" stroke-linejoin="round"/>
<path d="M7.17871 14.6289L6.26736 18.0301C5.57091 20.6293 6.69757 22.9002 9.29879 23.5972L16.7418 25.5915C19.344 26.2888 21.4562 24.8858 22.1527 22.2866L23.064 18.8854" stroke="white" stroke-width="2" stroke-linecap="round" stroke-linejoin="round"/>
<path d="M10.2291 23.8455L11.0849 20.6515C11.4814 19.1721 13.0022 18.2941 14.4817 18.6905C15.9611 19.0869 16.8382 20.6074 16.4418 22.0869L15.586 25.2809" stroke="white" stroke-width="2" stroke-linecap="round" stroke-linejoin="round"/>
<path d="M19.4288 18.5206L19.3633 18.5031M19.3436 18.7823C19.1961 18.7427 19.1087 18.5911 19.1482 18.4437C19.1877 18.2961 19.3392 18.2088 19.4867 18.2483C19.6341 18.2878 19.7217 18.4392 19.6822 18.5868C19.6427 18.7342 19.491 18.8218 19.3436 18.7823Z" stroke="white" stroke-width="1.59004" stroke-linecap="round" stroke-linejoin="round"/>
</g>
<defs>
<clipPath id="clip0_7046_5164">
<rect width="24" height="24" fill="white" transform="translate(6.90918 0.697266) rotate(15)"/>
</clipPath>
</defs>
</svg>
