<svg width="25" height="24" viewBox="0 0 25 24" fill="none" xmlns="http://www.w3.org/2000/svg">
<path d="M12.3588 10.87C12.2588 10.86 12.1388 10.86 12.0288 10.87C9.64879 10.79 7.75879 8.84 7.75879 6.44C7.75879 3.99 9.73879 2 12.1988 2C14.6488 2 16.6388 3.99 16.6388 6.44C16.6288 8.84 14.7388 10.79 12.3588 10.87Z" stroke="#364152" stroke-width="2" stroke-linecap="round" stroke-linejoin="round"/>
<path d="M7.35895 14.56C4.93895 16.18 4.93895 18.82 7.35895 20.43C10.1089 22.27 14.6189 22.27 17.3689 20.43C19.7889 18.81 19.7889 16.17 17.3689 14.56C14.6289 12.73 10.1189 12.73 7.35895 14.56Z" stroke="#364152" stroke-width="2" stroke-linecap="round" stroke-linejoin="round"/>
</svg>
