<svg width="26" height="26" viewBox="0 0 26 26" fill="none" xmlns="http://www.w3.org/2000/svg">
<path d="M6.95783 16.2722C8.45852 16.2019 9.73145 17.3618 9.80171 18.8615C9.87197 20.3612 8.71306 21.635 7.21237 21.7053C5.71265 21.7756 4.43972 20.6157 4.36946 19.116C4.2992 17.6163 5.4581 16.3424 6.95783 16.2722Z" stroke="white" stroke-width="2" stroke-linecap="round" stroke-linejoin="round"/>
<path d="M5.54543 16.701C5.36078 13.6121 7.87532 11.438 10.9067 11.8337C13.8304 12.2159 18.5131 15.5276 17.1022 18.8481C16.5671 20.1092 15.3059 20.8619 13.9254 21.023C12.2149 21.1694 10.5357 21.1302 8.86504 21.0448" stroke="white" stroke-width="2" stroke-linecap="round" stroke-linejoin="round"/>
<path d="M19.333 20.666L22.4549 20.5198" stroke="white" stroke-width="2" stroke-linecap="round" stroke-linejoin="round"/>
<path d="M12.2315 15.0363C12.2493 14.9985 13.651 15.374 14.3085 16.6836" stroke="white" stroke-width="2" stroke-linecap="round" stroke-linejoin="round"/>
<path d="M14.2575 13.1659C14.8843 12.2198 15.1132 11.013 14.8055 9.91302C14.5069 8.84285 13.527 8.26242 13.1603 7.25292C12.76 6.15341 13.4957 4.9325 14.627 4.71099C15.8586 4.47016 16.9365 5.56227 17.6456 6.45541C20.7741 10.3795 20.3616 14.5484 20.5692 19.3352L20.6289 20.6094" stroke="white" stroke-width="1.5" stroke-linecap="round" stroke-linejoin="round"/>
</svg>
